<svg width="32" height="32" viewBox="0 0 32 32" fill="none" xmlns="http://www.w3.org/2000/svg">
<path fill-rule="evenodd" clip-rule="evenodd" d="M10.0517 8.35242C9.58303 7.88253 8.82111 7.88253 8.35242 8.35242C7.88253 8.82111 7.88253 9.58303 8.35242 10.0517L14.3012 16.0005L8.35242 21.9492C7.88253 22.4179 7.88253 23.1786 8.35242 23.6485C8.82111 24.1172 9.58303 24.1172 10.0517 23.6485L16.0005 17.6997L21.9492 23.6485C22.4179 24.1172 23.1786 24.1172 23.6485 23.6485C24.1172 23.1786 24.1172 22.4179 23.6485 21.9492L17.6997 16.0005L23.6485 10.0517C24.1172 9.58303 24.1172 8.82111 23.6485 8.35242C23.1786 7.88253 22.4179 7.88253 21.9492 8.35242L16.0005 14.3012L10.0517 8.35242Z" fill="#60635E"/>
</svg>
