<svg width="20" height="20" viewBox="0 0 20 20" fill="none" xmlns="http://www.w3.org/2000/svg">
<path fill-rule="evenodd" clip-rule="evenodd" d="M15.5557 10.0002C15.5557 13.0685 13.0685 15.5557 10.0002 15.5557C6.93183 15.5557 4.44461 13.0685 4.44461 10.0002C4.44461 6.93183 6.93183 4.44461 10.0002 4.44461C13.0685 4.44461 15.5557 6.93183 15.5557 10.0002ZM16.6668 10.0002C16.6668 13.6818 13.6818 16.6668 10.0002 16.6668C6.3185 16.6668 3.3335 13.6818 3.3335 10.0002C3.3335 6.3185 6.3185 3.3335 10.0002 3.3335C13.6818 3.3335 16.6668 6.3185 16.6668 10.0002Z" fill="#60635E"/>
<path fill-rule="evenodd" clip-rule="evenodd" d="M9.80018 10.5557C9.65284 10.5557 9.51153 10.4971 9.40735 10.3929C9.30316 10.2888 9.24463 10.1475 9.24463 10.0001V6.11122C9.24463 5.96388 9.30316 5.82257 9.40735 5.71838C9.51153 5.6142 9.65284 5.55566 9.80018 5.55566C9.94753 5.55566 10.0888 5.6142 10.193 5.71838C10.2972 5.82257 10.3557 5.96388 10.3557 6.11122V10.0001C10.3557 10.1475 10.2972 10.2888 10.193 10.3929C10.0888 10.4971 9.94753 10.5557 9.80018 10.5557Z" fill="#60635E"/>
<path fill-rule="evenodd" clip-rule="evenodd" d="M13.1677 11.9459C13.094 12.0735 12.9727 12.1666 12.8304 12.2047C12.688 12.2429 12.5364 12.2229 12.4088 12.1492L9.52215 10.4826C9.39559 10.4084 9.30351 10.2871 9.26601 10.1453C9.22852 10.0035 9.24864 9.85258 9.32199 9.72553C9.39535 9.59848 9.51598 9.5056 9.65755 9.46716C9.79913 9.42873 9.95017 9.44785 10.0777 9.52036L12.9644 11.187C13.092 11.2607 13.1851 11.382 13.2232 11.5244C13.2613 11.6667 13.2414 11.8183 13.1677 11.9459Z" fill="#60635E"/>
</svg>
