<svg width="9" height="14" viewBox="0 0 9 14" fill="none" xmlns="http://www.w3.org/2000/svg">
<path fill-rule="evenodd" clip-rule="evenodd" d="M7.82612 12.9177C8.09162 12.5997 8.04812 12.1264 7.73012 11.8617C6.49637 10.8289 3.63137 8.29018 2.64962 7.00018C3.64787 5.68843 6.47462 3.18643 7.73012 2.13868C8.04812 1.87393 8.09162 1.40068 7.82612 1.08268C7.56137 0.763926 7.08812 0.721176 6.76937 0.986676C5.39012 2.13568 2.42012 4.73143 1.36937 6.20968C1.20512 6.44368 1.06262 6.70768 1.06262 7.00018C1.06262 7.29268 1.20512 7.55668 1.36937 7.78993C2.39912 9.23893 5.41862 11.8864 6.76937 13.0129L6.77012 13.0137C7.08812 13.2792 7.56137 13.2357 7.82612 12.9177Z" fill="#60635E" stroke="#60635E" stroke-width="0.4"/>
</svg>
