<svg width="22" height="20" viewBox="0 0 22 20" fill="none" xmlns="http://www.w3.org/2000/svg">
<path d="M20.5753 1.78558H7.81794C7.46721 0.748949 6.4819 0 5.32344 0C4.16497 0 3.17967 0.748949 2.82893 1.78558H0.837607C0.375024 1.78558 0 2.15877 0 2.6191C0 3.07943 0.375024 3.45262 0.837607 3.45262H2.82899C3.17972 4.48925 4.16503 5.2382 5.32349 5.2382C6.48196 5.2382 7.46726 4.48925 7.818 3.45262H20.5754C21.0379 3.45262 21.413 3.07943 21.413 2.6191C21.413 2.15877 21.0379 1.78558 20.5753 1.78558ZM5.32344 3.57115C4.79591 3.57115 4.36672 3.14405 4.36672 2.6191C4.36672 2.09415 4.79591 1.66705 5.32344 1.66705C5.85096 1.66705 6.28015 2.09415 6.28015 2.6191C6.28015 3.14405 5.85096 3.57115 5.32344 3.57115Z" fill="black"/>
<path d="M20.5753 8.92815H18.5839C18.2332 7.89153 17.2478 7.14258 16.0894 7.14258C14.931 7.14258 13.9457 7.89153 13.595 8.92815H0.837607C0.375024 8.92815 0 9.30135 0 9.76168C0 10.222 0.375024 10.5952 0.837607 10.5952H13.595C13.9457 11.6318 14.9311 12.3808 16.0895 12.3808C17.2479 12.3808 18.2332 11.6318 18.584 10.5952H20.5754C21.0379 10.5952 21.413 10.222 21.413 9.76168C21.413 9.30135 21.0379 8.92815 20.5753 8.92815ZM16.0895 10.7137C15.562 10.7137 15.1328 10.2866 15.1328 9.76168C15.1328 9.23672 15.562 8.80963 16.0895 8.80963C16.617 8.80963 17.0462 9.23672 17.0462 9.76168C17.0462 10.2866 16.617 10.7137 16.0895 10.7137Z" fill="black"/>
<path d="M20.5753 16.0702H11.4066C11.0559 15.0336 10.0706 14.2847 8.91214 14.2847C7.75367 14.2847 6.76837 15.0336 6.41763 16.0702H0.837607C0.375024 16.0702 0 16.4434 0 16.9038C0 17.3641 0.375024 17.7373 0.837607 17.7373H6.41763C6.76837 18.7739 7.75367 19.5229 8.91214 19.5229C10.0706 19.5229 11.0559 18.7739 11.4066 17.7373H20.5754C21.0379 17.7373 21.413 17.3641 21.413 16.9038C21.413 16.4434 21.0379 16.0702 20.5753 16.0702ZM8.91214 17.8559C8.38461 17.8559 7.95542 17.4288 7.95542 16.9038C7.95542 16.3789 8.38461 15.9518 8.91214 15.9518C9.43966 15.9518 9.86885 16.3788 9.86885 16.9038C9.86885 17.4287 9.43966 17.8559 8.91214 17.8559Z" fill="black"/>
</svg>
