<svg width="9" height="14" viewBox="0 0 9 14" fill="none" xmlns="http://www.w3.org/2000/svg">
<path fill-rule="evenodd" clip-rule="evenodd" d="M1.2365 12.9177C0.971 12.5997 1.0145 12.1264 1.3325 11.8617C2.56625 10.8289 5.43125 8.29018 6.413 7.00018C5.41475 5.68843 2.588 3.18643 1.3325 2.13868C1.0145 1.87393 0.971 1.40068 1.2365 1.08268C1.50125 0.763926 1.9745 0.721176 2.29325 0.986676C3.6725 2.13568 6.6425 4.73143 7.69325 6.20968C7.8575 6.44368 8 6.70768 8 7.00018C8 7.29268 7.8575 7.55668 7.69325 7.78993C6.6635 9.23893 3.644 11.8864 2.29325 13.0129L2.2925 13.0137C1.9745 13.2792 1.50125 13.2357 1.2365 12.9177Z" fill="#A9ADA5" stroke="#A9ADA5" stroke-width="0.4"/>
</svg>
