<svg width="16" height="16" viewBox="0 0 16 16" fill="none" xmlns="http://www.w3.org/2000/svg">
<path fill-rule="evenodd" clip-rule="evenodd" d="M4.19547 6.15992C3.87747 6.09442 3.57147 6.34392 3.58897 6.66792C3.99297 14.0249 4.22447 14.0234 7.42947 14.0024C7.60997 14.0014 7.79997 13.9999 7.99997 13.9999C8.19997 13.9999 8.38997 14.0014 8.57047 14.0024C11.7755 14.0234 12.007 14.0249 12.411 6.66792C12.4285 6.34392 12.1225 6.09442 11.805 6.15992C11.6993 6.18081 11.6036 6.23609 11.5327 6.31714C11.4617 6.39818 11.4197 6.50043 11.413 6.60792C11.328 8.15492 11.2515 9.36292 11.1535 10.3114C11.0205 11.6034 10.8595 12.2529 10.6785 12.5944C10.566 12.8074 10.4675 12.8874 10.145 12.9449C9.78697 13.0089 9.33747 13.0064 8.63547 13.0024H8.63447C8.21148 12.9991 7.78847 12.9991 7.36547 13.0024H7.36497C6.66247 13.0064 6.21297 13.0089 5.85497 12.9449C5.53247 12.8874 5.43397 12.8074 5.32147 12.5944C5.14047 12.2529 4.97947 11.6034 4.84647 10.3114C4.74847 9.36292 4.67197 8.15492 4.58697 6.60792C4.58032 6.5005 4.53831 6.39831 4.46749 6.31727C4.39667 6.23623 4.30103 6.1809 4.19547 6.15992Z" fill="#60635E"/>
<path d="M3 5C3 4.86739 3.05268 4.74021 3.14645 4.64645C3.24021 4.55268 3.36739 4.5 3.5 4.5H12.5C12.6326 4.5 12.7598 4.55268 12.8536 4.64645C12.9473 4.74021 13 4.86739 13 5C13 5.13261 12.9473 5.25979 12.8536 5.35355C12.7598 5.44732 12.6326 5.5 12.5 5.5H3.5C3.36739 5.5 3.24021 5.44732 3.14645 5.35355C3.05268 5.25979 3 5.13261 3 5Z" fill="#60635E"/>
<path fill-rule="evenodd" clip-rule="evenodd" d="M6.125 3.9865C6.056 4.0925 6 4.25 6 4.5H5C5 4.095 5.093 3.7375 5.288 3.4395C5.471 3.1715 5.7695 2.9365 6.0505 2.804C6.62 2.5435 7.3435 2.5 8 2.5C8.6565 2.5 9.38 2.5435 9.9495 2.804C10.2305 2.9365 10.5285 3.1715 10.712 3.4395C10.907 3.7375 11 4.095 11 4.5H10C10 4.25 9.944 4.0925 9.875 3.9865C9.7945 3.8505 9.713 3.7925 9.533 3.7135C9.18 3.5515 8.653 3.5 8 3.5C7.347 3.5 6.82 3.5515 6.467 3.7135C6.287 3.7925 6.2055 3.8505 6.125 3.9865Z" fill="#60635E"/>
<path d="M6.02196 7.04302C6.01841 6.97702 6.02797 6.91097 6.0501 6.84869C6.07223 6.78641 6.10649 6.72914 6.1509 6.68018C6.19531 6.63123 6.24898 6.59156 6.30881 6.56348C6.36865 6.5354 6.43346 6.51946 6.49949 6.51659C6.56552 6.51371 6.63147 6.52396 6.69352 6.54673C6.75557 6.5695 6.81248 6.60435 6.86098 6.64926C6.90947 6.69417 6.94858 6.74825 6.97604 6.80838C7.0035 6.8685 7.01877 6.93346 7.02097 6.99952L7.19547 10.9955C7.19984 11.1272 7.15209 11.2552 7.06259 11.3519C6.97309 11.4485 6.84908 11.5059 6.71749 11.5116C6.5859 11.5174 6.45737 11.4709 6.35981 11.3825C6.26225 11.294 6.20355 11.1705 6.19646 11.039L6.02196 7.04302ZM8.97796 6.99952C8.98505 6.868 9.04375 6.74459 9.14131 6.6561C9.23887 6.5676 9.3674 6.52118 9.49899 6.52691C9.63058 6.53264 9.75459 6.59006 9.84409 6.6867C9.93359 6.78334 9.98134 6.91138 9.97697 7.04302L9.80297 11.0395C9.79713 11.1721 9.73888 11.2969 9.64104 11.3865C9.54319 11.4761 9.41376 11.5231 9.28122 11.5173C9.14867 11.5114 9.02388 11.4532 8.93428 11.3553C8.84469 11.2575 8.79763 11.1281 8.80347 10.9955L8.97796 6.99952Z" fill="#60635E"/>
</svg>
