<svg width="24" height="24" viewBox="0 0 24 24" fill="none" xmlns="http://www.w3.org/2000/svg">
<path fill-rule="evenodd" clip-rule="evenodd" d="M12 10.5C12.4142 10.5 12.75 10.1642 12.75 9.75C12.75 9.33578 12.4142 9 12 9C11.5858 9 11.25 9.33578 11.25 9.75C11.25 10.1642 11.5858 10.5 12 10.5ZM12 12C13.2427 12 14.25 10.9927 14.25 9.75C14.25 8.50732 13.2427 7.5 12 7.5C10.7573 7.5 9.75 8.50732 9.75 9.75C9.75 10.9927 10.7573 12 12 12Z" fill="#60635E"/>
<path fill-rule="evenodd" clip-rule="evenodd" d="M12 4.5C9.1005 4.5 6.75 6.85051 6.75 9.75C6.75 11.8454 7.54973 13.7738 8.5815 15.3855C9.61208 16.9953 10.8468 18.2461 11.6468 18.9709C11.855 19.1596 12.145 19.1596 12.3533 18.9709C13.1532 18.2461 14.3879 16.9953 15.4185 15.3855C16.4503 13.7738 17.25 11.8454 17.25 9.75C17.25 6.85051 14.8995 4.5 12 4.5ZM5.25 9.75C5.25 6.02208 8.27205 3 12 3C15.728 3 18.75 6.02208 18.75 9.75C18.75 12.2276 17.807 14.4365 16.6818 16.1942C15.5552 17.954 14.2184 19.3051 13.3604 20.0825C12.5806 20.789 11.4194 20.789 10.6397 20.0825C9.78165 19.3051 8.44477 17.954 7.31823 16.1942C6.19294 14.4365 5.25 12.2276 5.25 9.75Z" fill="#60635E"/>
</svg>
