<svg width="10" height="10" viewBox="0 0 10 10" fill="none" xmlns="http://www.w3.org/2000/svg">
<path fill-rule="evenodd" clip-rule="evenodd" d="M5.00005 0.333496C4.62441 0.333496 4.31264 0.62379 4.28588 0.998468L4.06671 4.06683L0.998346 4.286C0.623668 4.31276 0.333374 4.62453 0.333374 5.00016C0.333374 5.3758 0.623668 5.68757 0.998346 5.71433L4.06671 5.9335L4.28588 9.00186C4.31264 9.37654 4.62441 9.66683 5.00005 9.66683C5.37568 9.66683 5.68745 9.37654 5.71421 9.00186L5.93338 5.9335L9.00174 5.71433C9.37642 5.68757 9.66671 5.3758 9.66671 5.00016C9.66671 4.62453 9.37642 4.31276 9.00174 4.286L5.93338 4.06683L5.71421 0.998468C5.68745 0.62379 5.37568 0.333496 5.00005 0.333496Z" fill="#60635E"/>
</svg>
