<svg width="66" height="66" viewBox="0 0 66 66" fill="none" xmlns="http://www.w3.org/2000/svg">
<circle cx="33" cy="33" r="33" fill="#EBFFD7"/>
<path d="M53.865 28.5294C53.865 28.5294 49.931 23.2741 49.9286 23.2711C49.9276 23.2697 49.8418 23.1174 49.5775 23.0333L33.1841 18.4044C33.0636 18.3704 32.9363 18.3704 32.8158 18.4044L16.4224 23.0333C16.4224 23.0333 16.1986 23.0979 16.0641 23.2795C16.0103 23.3522 12.1351 28.5294 12.1351 28.5294C12.0051 28.7032 11.9661 28.9287 12.0303 29.136C12.0946 29.3433 12.2543 29.5073 12.4598 29.577L15.9291 30.7544V40.1693C15.9291 40.4435 16.0943 40.6906 16.3478 40.7953L32.7413 47.5695C32.7901 47.5897 32.8518 47.6209 33 47.6209C33.1481 47.6209 33.2586 47.5695 33.2586 47.5695L49.6522 40.7953C49.9057 40.6906 50.0709 40.4434 50.0709 40.1693V30.7542L53.5402 29.5768C53.7456 29.5071 53.9053 29.343 53.9696 29.1358C54.0338 28.9287 53.9948 28.7032 53.865 28.5294ZM13.7791 28.5939L16.872 24.4611L18.1229 24.8057L25.1632 26.745L31.8211 28.5792L27.9163 33.3919L13.7791 28.5939ZM32.3226 45.9304L17.2839 39.7162V31.2141L27.9276 34.8268C27.9989 34.8512 28.0723 34.8627 28.1452 34.8627C28.3454 34.8627 28.5401 34.7737 28.6712 34.612L32.3227 30.1115L32.3226 45.9304ZM33 27.499L19.1279 23.6773L33 19.7601L46.8721 23.6773L33 27.499ZM48.7161 39.7162L33.6773 45.9304V30.1117L37.3288 34.6121C37.4599 34.7737 37.6546 34.8628 37.8548 34.8628C37.9277 34.8628 38.0011 34.8514 38.0725 34.827L48.7161 31.2143V39.7162ZM38.0837 33.3921L34.1789 28.5794L49.128 24.4611L52.221 28.5939L38.0837 33.3921Z" fill="#28B446"/>
</svg>
