<svg width="24" height="24" viewBox="0 0 24 24" fill="none" xmlns="http://www.w3.org/2000/svg">
<path fill-rule="evenodd" clip-rule="evenodd" d="M19.2817 15.786C19.4625 14.877 19.5 13.692 19.5 12C19.5 10.308 19.4625 9.123 19.2817 8.214C19.1197 7.3815 18.882 7.03125 18.6337 6.82425C18.3457 6.58425 17.8132 6.3435 16.686 6.19125C15.5377 6.0345 14.0445 6 12 6C9.95625 6 8.46225 6.0345 7.314 6.19125C6.18675 6.3435 5.65425 6.58425 5.36625 6.82425C5.118 7.03125 4.88025 7.3815 4.71825 8.214C4.5375 9.123 4.5 10.308 4.5 12C4.5 13.692 4.5375 14.877 4.71825 15.786C4.88025 16.6185 5.118 16.9687 5.36625 17.1757C5.65425 17.4157 6.18675 17.6565 7.314 17.808C8.46225 17.9655 9.95625 18 12 18C14.0445 18 15.5377 17.9655 16.686 17.808C17.8132 17.6565 18.3457 17.4157 18.6337 17.1757C18.882 16.9687 19.1197 16.6185 19.2817 15.786ZM12 19.5C20.25 19.5 21 18.8752 21 12C21 5.12475 20.25 4.5 12 4.5C3.75 4.5 3 5.12475 3 12C3 18.8752 3.75 19.5 12 19.5Z" fill="#60635E"/>
<path fill-rule="evenodd" clip-rule="evenodd" d="M4.5 8.25H19.5V11.25H4.5V8.25Z" fill="#60635E"/>
</svg>
